<svg xmlns="http://www.w3.org/2000/svg" xmlns:xlink="http://www.w3.org/1999/xlink" width="1080" zoomAndPan="magnify" viewBox="0 0 810 809.999993" height="1080" preserveAspectRatio="xMidYMid meet" version="1.0"><defs><g/><clipPath id="81115abde8"><path d="M 388 42.839844 L 424 42.839844 L 424 162 L 388 162 Z M 388 42.839844 " clip-rule="nonzero"/></clipPath><clipPath id="1e0ffc94ea"><path d="M 127.167969 259 L 246 259 L 246 310 L 127.167969 310 Z M 127.167969 259 " clip-rule="nonzero"/></clipPath><clipPath id="c1b359bf3f"><path d="M 127.167969 337 L 245 337 L 245 387 L 127.167969 387 Z M 127.167969 337 " clip-rule="nonzero"/></clipPath><clipPath id="9f6474d06d"><path d="M 564 339 L 682.917969 339 L 682.917969 389 L 564 389 Z M 564 339 " clip-rule="nonzero"/></clipPath><clipPath id="ab87f7e56b"><path d="M 565 262 L 682.917969 262 L 682.917969 312 L 565 312 Z M 565 262 " clip-rule="nonzero"/></clipPath><clipPath id="4b04f0f140"><path d="M 127.167969 259 L 246 259 L 246 310 L 127.167969 310 Z M 127.167969 259 " clip-rule="nonzero"/></clipPath><clipPath id="a6f0dee6b1"><path d="M 127.167969 337 L 245 337 L 245 387 L 127.167969 387 Z M 127.167969 337 " clip-rule="nonzero"/></clipPath><clipPath id="a2583a72b7"><path d="M 564 339 L 682.917969 339 L 682.917969 389 L 564 389 Z M 564 339 " clip-rule="nonzero"/></clipPath><clipPath id="a13f7e750e"><path d="M 565 262 L 682.917969 262 L 682.917969 312 L 565 312 Z M 565 262 " clip-rule="nonzero"/></clipPath></defs><g clip-path="url(#81115abde8)"><path fill="#00b8a9" d="M 406.175781 161.417969 C 396.5625 161.417969 388.75 153.609375 388.75 143.992188 L 388.75 60.265625 C 388.753906 50.644531 396.558594 42.839844 406.175781 42.839844 C 415.796875 42.839844 423.601562 50.644531 423.601562 60.265625 L 423.601562 143.992188 C 423.601562 153.613281 415.796875 161.417969 406.175781 161.417969 Z M 406.175781 161.417969 " fill-opacity="1" fill-rule="nonzero"/></g><path fill="#00b8a9" d="M 344.441406 171.910156 C 337.328125 171.910156 330.644531 167.519531 328.074219 160.441406 L 299.445312 81.761719 C 296.15625 72.71875 300.816406 62.726562 309.859375 59.433594 C 318.886719 56.15625 328.890625 60.808594 332.179688 69.847656 L 360.808594 148.53125 C 364.097656 157.570312 359.4375 167.566406 350.398438 170.855469 C 348.433594 171.566406 346.414062 171.910156 344.441406 171.910156 Z M 344.441406 171.910156 " fill-opacity="1" fill-rule="nonzero"/><path fill="#00b8a9" d="M 290.027344 202.878906 C 285.050781 202.878906 280.117188 200.757812 276.667969 196.648438 L 222.859375 132.511719 C 216.675781 125.136719 217.640625 114.15625 225.011719 107.964844 C 232.375 101.78125 243.375 102.757812 249.558594 110.121094 L 303.367188 174.257812 C 309.550781 181.632812 308.585938 192.613281 301.210938 198.804688 C 297.957031 201.539062 293.976562 202.878906 290.027344 202.878906 Z M 290.027344 202.878906 " fill-opacity="1" fill-rule="nonzero"/><path fill="#00b8a9" d="M 249.457031 250.601562 C 246.496094 250.601562 243.5 249.851562 240.757812 248.261719 L 168.253906 206.390625 C 159.917969 201.582031 157.070312 190.929688 161.878906 182.59375 C 166.6875 174.257812 177.347656 171.410156 185.675781 176.214844 L 258.175781 218.085938 C 266.515625 222.894531 269.359375 233.546875 264.554688 241.886719 C 261.332031 247.480469 255.46875 250.601562 249.457031 250.601562 Z M 249.457031 250.601562 " fill-opacity="1" fill-rule="nonzero"/><g clip-path="url(#1e0ffc94ea)"><path fill="#00b8a9" d="M 227.703125 309.316406 C 226.691406 309.316406 225.671875 309.234375 224.648438 309.054688 L 142.210938 294.503906 C 132.742188 292.824219 126.410156 283.78125 128.078125 274.308594 C 129.757812 264.824219 138.886719 258.527344 148.269531 260.175781 L 230.707031 274.726562 C 240.179688 276.402344 246.507812 285.445312 244.84375 294.917969 C 243.34375 303.371094 235.992188 309.316406 227.703125 309.316406 Z M 227.703125 309.316406 " fill-opacity="1" fill-rule="nonzero"/></g><g clip-path="url(#c1b359bf3f)"><path fill="#00b8a9" d="M 144.820312 386.464844 C 136.527344 386.464844 129.175781 380.519531 127.679688 372.054688 C 126.011719 362.585938 132.339844 353.542969 141.824219 351.875 L 224.273438 337.355469 C 233.679688 335.664062 242.773438 342.003906 244.453125 351.5 C 246.121094 360.972656 239.792969 370.011719 230.308594 371.683594 L 147.859375 386.203125 C 146.839844 386.382812 145.828125 386.464844 144.820312 386.464844 Z M 144.820312 386.464844 " fill-opacity="1" fill-rule="nonzero"/></g><path fill="#00b8a9" d="M 175.84375 472.765625 C 169.820312 472.765625 163.96875 469.648438 160.746094 464.054688 C 155.9375 455.71875 158.792969 445.050781 167.121094 440.257812 L 239.632812 398.421875 C 247.949219 393.601562 258.621094 396.460938 263.429688 404.800781 C 268.238281 413.132812 265.378906 423.800781 257.054688 428.597656 L 184.542969 470.429688 C 181.796875 472.019531 178.800781 472.765625 175.84375 472.765625 Z M 175.84375 472.765625 " fill-opacity="1" fill-rule="nonzero"/><path fill="#00b8a9" d="M 234.449219 543.265625 C 230.503906 543.265625 226.519531 541.929688 223.253906 539.183594 C 215.890625 533 214.929688 522.007812 221.121094 514.636719 L 274.953125 450.523438 C 281.136719 443.148438 292.128906 442.199219 299.5 448.390625 C 306.863281 454.574219 307.824219 465.566406 301.632812 472.9375 L 247.800781 537.050781 C 244.363281 541.15625 239.417969 543.265625 234.449219 543.265625 Z M 234.449219 543.265625 " fill-opacity="1" fill-rule="nonzero"/><path fill="#00b8a9" d="M 313.679688 589.457031 C 311.695312 589.457031 309.6875 589.117188 307.710938 588.40625 C 298.671875 585.113281 294.007812 575.113281 297.3125 566.070312 L 325.960938 487.414062 C 329.25 478.371094 339.253906 473.734375 348.296875 477.015625 C 357.335938 480.308594 361.996094 490.308594 358.695312 499.347656 L 330.042969 578.007812 C 327.472656 585.066406 320.789062 589.457031 313.679688 589.457031 Z M 313.679688 589.457031 " fill-opacity="1" fill-rule="nonzero"/><path fill="#00b8a9" d="M 403.910156 605.773438 C 394.28125 605.773438 386.488281 597.964844 386.488281 588.347656 L 386.511719 504.632812 C 386.511719 494.996094 394.3125 487.207031 403.933594 487.207031 C 413.5625 487.207031 421.355469 495.011719 421.355469 504.632812 L 421.332031 588.347656 C 421.332031 597.980469 413.527344 605.773438 403.910156 605.773438 Z M 403.910156 605.773438 " fill-opacity="1" fill-rule="nonzero"/><path fill="#00b8a9" d="M 494.277344 590.242188 C 487.148438 590.242188 480.472656 585.851562 477.898438 578.777344 L 449.289062 500.09375 C 446.011719 491.054688 450.675781 481.042969 459.714844 477.761719 C 468.765625 474.46875 478.757812 479.15625 482.046875 488.183594 L 510.65625 566.867188 C 513.933594 575.910156 509.269531 585.914062 500.230469 589.199219 C 498.269531 589.914062 496.25 590.242188 494.277344 590.242188 Z M 494.277344 590.242188 " fill-opacity="1" fill-rule="nonzero"/><path fill="#00b8a9" d="M 573.890625 544.730469 C 568.910156 544.730469 563.980469 542.613281 560.53125 538.5 L 506.742188 474.351562 C 500.5625 466.976562 501.523438 455.988281 508.902344 449.808594 C 516.285156 443.621094 527.265625 444.601562 533.445312 451.964844 L 587.234375 516.117188 C 593.417969 523.488281 592.453125 534.480469 585.074219 540.664062 C 581.808594 543.394531 577.839844 544.730469 573.890625 544.730469 Z M 573.890625 544.730469 " fill-opacity="1" fill-rule="nonzero"/><path fill="#00b8a9" d="M 633.113281 474.742188 C 630.148438 474.742188 627.15625 473.992188 624.410156 472.402344 L 551.917969 430.523438 C 543.582031 425.714844 540.734375 415.046875 545.542969 406.722656 C 550.375 398.375 561.015625 395.527344 569.339844 400.347656 L 641.828125 442.226562 C 650.164062 447.035156 653.011719 457.703125 648.203125 466.027344 C 644.976562 471.621094 639.125 474.742188 633.113281 474.742188 Z M 633.113281 474.742188 " fill-opacity="1" fill-rule="nonzero"/><g clip-path="url(#9f6474d06d)"><path fill="#00b8a9" d="M 664.871094 388.710938 C 663.859375 388.710938 662.835938 388.628906 661.820312 388.445312 L 579.382812 373.882812 C 569.898438 372.207031 563.582031 363.164062 565.25 353.691406 C 566.925781 344.207031 576.035156 337.910156 585.441406 339.554688 L 667.878906 354.121094 C 677.363281 355.796875 683.679688 364.839844 682.015625 374.3125 C 680.511719 382.765625 673.160156 388.710938 664.871094 388.710938 Z M 664.871094 388.710938 " fill-opacity="1" fill-rule="nonzero"/></g><g clip-path="url(#ab87f7e56b)"><path fill="#00b8a9" d="M 582.773438 311.527344 C 574.480469 311.527344 567.121094 305.585938 565.636719 297.121094 C 563.96875 287.648438 570.296875 278.609375 579.777344 276.9375 L 662.226562 262.429688 C 671.667969 260.785156 680.738281 267.078125 682.40625 276.574219 C 684.070312 286.046875 677.742188 295.085938 668.261719 296.757812 L 585.8125 311.265625 C 584.792969 311.449219 583.78125 311.527344 582.773438 311.527344 Z M 582.773438 311.527344 " fill-opacity="1" fill-rule="nonzero"/></g><path fill="#00b8a9" d="M 561.753906 252.550781 C 555.730469 252.550781 549.878906 249.433594 546.648438 243.828125 C 541.847656 235.503906 544.707031 224.839844 553.042969 220.03125 L 625.566406 178.195312 C 633.855469 173.394531 644.539062 176.230469 649.363281 184.59375 C 654.160156 192.917969 651.296875 203.582031 642.964844 208.390625 L 570.441406 250.226562 C 567.710938 251.804688 564.714844 252.550781 561.753906 252.550781 Z M 561.753906 252.550781 " fill-opacity="1" fill-rule="nonzero"/><path fill="#00b8a9" d="M 521.785156 204.328125 C 517.835938 204.328125 513.855469 202.988281 510.585938 200.246094 C 503.226562 194.0625 502.261719 183.070312 508.453125 175.699219 L 562.296875 111.585938 C 568.492188 104.210938 579.472656 103.261719 586.84375 109.453125 C 594.207031 115.636719 595.167969 126.628906 588.976562 134 L 535.132812 198.109375 C 531.683594 202.21875 526.75 204.328125 521.785156 204.328125 Z M 521.785156 204.328125 " fill-opacity="1" fill-rule="nonzero"/><path fill="#00b8a9" d="M 467.757812 172.679688 C 465.773438 172.679688 463.769531 172.339844 461.792969 171.628906 C 452.753906 168.335938 448.089844 158.332031 451.390625 149.292969 L 480.070312 70.636719 C 483.367188 61.59375 493.359375 56.957031 502.398438 60.234375 C 511.441406 63.523438 516.101562 73.53125 512.796875 82.570312 L 484.121094 161.226562 C 481.550781 168.289062 474.867188 172.679688 467.757812 172.679688 Z M 467.757812 172.679688 " fill-opacity="1" fill-rule="nonzero"/><path fill="#ffffff" d="M 290.027344 202.878906 C 285.050781 202.878906 280.117188 200.757812 276.667969 196.648438 L 222.859375 132.511719 C 216.675781 125.136719 217.640625 114.15625 225.011719 107.964844 C 232.375 101.78125 243.375 102.757812 249.558594 110.121094 L 303.367188 174.257812 C 309.550781 181.632812 308.585938 192.613281 301.210938 198.804688 C 297.957031 201.539062 293.976562 202.878906 290.027344 202.878906 Z M 290.027344 202.878906 " fill-opacity="0.749" fill-rule="nonzero"/><path fill="#ffffff" d="M 249.457031 250.601562 C 246.496094 250.601562 243.5 249.851562 240.757812 248.261719 L 168.253906 206.390625 C 159.917969 201.582031 157.070312 190.929688 161.878906 182.59375 C 166.6875 174.257812 177.347656 171.410156 185.675781 176.214844 L 258.175781 218.085938 C 266.515625 222.894531 269.359375 233.546875 264.554688 241.886719 C 261.332031 247.480469 255.46875 250.601562 249.457031 250.601562 Z M 249.457031 250.601562 " fill-opacity="0.749" fill-rule="nonzero"/><g clip-path="url(#4b04f0f140)"><path fill="#ffffff" d="M 227.703125 309.316406 C 226.691406 309.316406 225.671875 309.234375 224.648438 309.054688 L 142.210938 294.503906 C 132.742188 292.824219 126.410156 283.78125 128.078125 274.308594 C 129.757812 264.824219 138.886719 258.527344 148.269531 260.175781 L 230.707031 274.726562 C 240.179688 276.402344 246.507812 285.445312 244.84375 294.917969 C 243.34375 303.371094 235.992188 309.316406 227.703125 309.316406 Z M 227.703125 309.316406 " fill-opacity="0.6" fill-rule="nonzero"/></g><g clip-path="url(#a6f0dee6b1)"><path fill="#ffffff" d="M 144.820312 386.464844 C 136.527344 386.464844 129.175781 380.519531 127.679688 372.054688 C 126.011719 362.585938 132.339844 353.542969 141.824219 351.875 L 224.273438 337.355469 C 233.679688 335.664062 242.773438 342.003906 244.453125 351.5 C 246.121094 360.972656 239.792969 370.011719 230.308594 371.683594 L 147.859375 386.203125 C 146.839844 386.382812 145.828125 386.464844 144.820312 386.464844 Z M 144.820312 386.464844 " fill-opacity="0.6" fill-rule="nonzero"/></g><path fill="#ffffff" d="M 175.84375 472.765625 C 169.820312 472.765625 163.96875 469.648438 160.746094 464.054688 C 155.9375 455.71875 158.792969 445.050781 167.121094 440.257812 L 239.632812 398.421875 C 247.949219 393.601562 258.621094 396.460938 263.429688 404.800781 C 268.238281 413.132812 265.378906 423.800781 257.054688 428.597656 L 184.542969 470.429688 C 181.796875 472.019531 178.800781 472.765625 175.84375 472.765625 Z M 175.84375 472.765625 " fill-opacity="0.498" fill-rule="nonzero"/><path fill="#ffffff" d="M 234.449219 543.265625 C 230.503906 543.265625 226.519531 541.929688 223.253906 539.183594 C 215.890625 533 214.929688 522.007812 221.121094 514.636719 L 274.953125 450.523438 C 281.136719 443.148438 292.128906 442.199219 299.5 448.390625 C 306.863281 454.574219 307.824219 465.566406 301.632812 472.9375 L 247.800781 537.050781 C 244.363281 541.15625 239.417969 543.265625 234.449219 543.265625 Z M 234.449219 543.265625 " fill-opacity="0.498" fill-rule="nonzero"/><path fill="#ffffff" d="M 313.679688 589.457031 C 311.695312 589.457031 309.6875 589.117188 307.710938 588.40625 C 298.671875 585.113281 294.007812 575.113281 297.3125 566.070312 L 325.960938 487.414062 C 329.25 478.371094 339.253906 473.734375 348.296875 477.015625 C 357.335938 480.308594 361.996094 490.308594 358.695312 499.347656 L 330.042969 578.007812 C 327.472656 585.066406 320.789062 589.457031 313.679688 589.457031 Z M 313.679688 589.457031 " fill-opacity="0.4" fill-rule="nonzero"/><path fill="#ffffff" d="M 403.910156 605.773438 C 394.28125 605.773438 386.488281 597.964844 386.488281 588.347656 L 386.511719 504.632812 C 386.511719 494.996094 394.3125 487.207031 403.933594 487.207031 C 413.5625 487.207031 421.355469 495.011719 421.355469 504.632812 L 421.332031 588.347656 C 421.332031 597.980469 413.527344 605.773438 403.910156 605.773438 Z M 403.910156 605.773438 " fill-opacity="0.4" fill-rule="nonzero"/><path fill="#ffffff" d="M 494.277344 590.242188 C 487.148438 590.242188 480.472656 585.851562 477.898438 578.777344 L 449.289062 500.09375 C 446.011719 491.054688 450.675781 481.042969 459.714844 477.761719 C 468.765625 474.46875 478.757812 479.15625 482.046875 488.183594 L 510.65625 566.867188 C 513.933594 575.910156 509.269531 585.914062 500.230469 589.199219 C 498.269531 589.914062 496.25 590.242188 494.277344 590.242188 Z M 494.277344 590.242188 " fill-opacity="0.298" fill-rule="nonzero"/><path fill="#ffffff" d="M 573.890625 544.730469 C 568.910156 544.730469 563.980469 542.613281 560.53125 538.5 L 506.742188 474.351562 C 500.5625 466.976562 501.523438 455.988281 508.902344 449.808594 C 516.285156 443.621094 527.265625 444.601562 533.445312 451.964844 L 587.234375 516.117188 C 593.417969 523.488281 592.453125 534.480469 585.074219 540.664062 C 581.808594 543.394531 577.839844 544.730469 573.890625 544.730469 Z M 573.890625 544.730469 " fill-opacity="0.298" fill-rule="nonzero"/><path fill="#ffffff" d="M 633.113281 474.742188 C 630.148438 474.742188 627.15625 473.992188 624.410156 472.402344 L 551.917969 430.523438 C 543.582031 425.714844 540.734375 415.046875 545.542969 406.722656 C 550.375 398.375 561.015625 395.527344 569.339844 400.347656 L 641.828125 442.226562 C 650.164062 447.035156 653.011719 457.703125 648.203125 466.027344 C 644.976562 471.621094 639.125 474.742188 633.113281 474.742188 Z M 633.113281 474.742188 " fill-opacity="0.298" fill-rule="nonzero"/><g clip-path="url(#a2583a72b7)"><path fill="#ffffff" d="M 664.871094 388.710938 C 663.859375 388.710938 662.835938 388.628906 661.820312 388.445312 L 579.382812 373.882812 C 569.898438 372.207031 563.582031 363.164062 565.25 353.691406 C 566.925781 344.207031 576.035156 337.910156 585.441406 339.554688 L 667.878906 354.121094 C 677.363281 355.796875 683.679688 364.839844 682.015625 374.3125 C 680.511719 382.765625 673.160156 388.710938 664.871094 388.710938 Z M 664.871094 388.710938 " fill-opacity="0.2" fill-rule="nonzero"/></g><g clip-path="url(#a13f7e750e)"><path fill="#ffffff" d="M 582.773438 311.527344 C 574.480469 311.527344 567.121094 305.585938 565.636719 297.121094 C 563.96875 287.648438 570.296875 278.609375 579.777344 276.9375 L 662.226562 262.429688 C 671.667969 260.785156 680.738281 267.078125 682.40625 276.574219 C 684.070312 286.046875 677.742188 295.085938 668.261719 296.757812 L 585.8125 311.265625 C 584.792969 311.449219 583.78125 311.527344 582.773438 311.527344 Z M 582.773438 311.527344 " fill-opacity="0.2" fill-rule="nonzero"/></g><path fill="#ffffff" d="M 344.441406 171.910156 C 337.328125 171.910156 330.644531 167.519531 328.074219 160.441406 L 299.445312 81.761719 C 296.15625 72.71875 300.816406 62.726562 309.859375 59.433594 C 318.886719 56.15625 328.890625 60.808594 332.179688 69.847656 L 360.808594 148.53125 C 364.097656 157.570312 359.4375 167.566406 350.398438 170.855469 C 348.433594 171.566406 346.414062 171.910156 344.441406 171.910156 Z M 344.441406 171.910156 " fill-opacity="0.898" fill-rule="nonzero"/><g fill="#c4c0bf" fill-opacity="1"><g transform="translate(220.074367, 736.517623)"><g><path d="M 16.65625 -3.171875 L 23.953125 -2.046875 L 23.953125 0 L 1.859375 0 L 1.859375 -2.046875 L 9.125 -3.171875 L 9.125 -61.34375 L 1.859375 -62.4375 L 1.859375 -64.46875 L 16.65625 -64.46875 Z M 16.65625 -3.171875 "/></g></g></g><g fill="#c4c0bf" fill-opacity="1"><g transform="translate(245.887801, 736.517623)"><g><path d="M 42.921875 -21.546875 C 42.921875 -6.578125 36.265625 0.90625 22.953125 0.90625 C 16.546875 0.90625 11.707031 -1.007812 8.4375 -4.84375 C 5.164062 -8.6875 3.53125 -14.253906 3.53125 -21.546875 C 3.53125 -28.742188 5.164062 -34.25 8.4375 -38.0625 C 11.707031 -41.875 16.671875 -43.78125 23.328125 -43.78125 C 29.796875 -43.78125 34.675781 -41.910156 37.96875 -38.171875 C 41.269531 -34.441406 42.921875 -28.898438 42.921875 -21.546875 Z M 34.75 -21.546875 C 34.75 -28.085938 33.796875 -32.820312 31.890625 -35.75 C 29.984375 -38.6875 27.003906 -40.15625 22.953125 -40.15625 C 18.992188 -40.15625 16.128906 -38.75 14.359375 -35.9375 C 12.585938 -33.125 11.703125 -28.328125 11.703125 -21.546875 C 11.703125 -14.679688 12.601562 -9.816406 14.40625 -6.953125 C 16.207031 -4.097656 19.054688 -2.671875 22.953125 -2.671875 C 26.953125 -2.671875 29.914062 -4.148438 31.84375 -7.109375 C 33.78125 -10.078125 34.75 -14.890625 34.75 -21.546875 Z M 34.75 -21.546875 "/></g></g></g><g fill="#c4c0bf" fill-opacity="1"><g transform="translate(292.342899, 736.517623)"><g><path d="M 21.09375 -43.609375 C 25.75 -43.609375 29.175781 -42.65625 31.375 -40.75 C 33.570312 -38.84375 34.671875 -35.921875 34.671875 -31.984375 L 34.671875 -3.171875 L 39.96875 -2.046875 L 39.96875 0 L 28.265625 0 L 27.40625 -4.265625 C 23.957031 -0.816406 19.554688 0.90625 14.203125 0.90625 C 6.910156 0.90625 3.265625 -3.328125 3.265625 -11.796875 C 3.265625 -14.640625 3.816406 -16.988281 4.921875 -18.84375 C 6.023438 -20.707031 7.785156 -22.128906 10.203125 -23.109375 C 12.628906 -24.097656 16.140625 -24.640625 20.734375 -24.734375 L 27.125 -24.90625 L 27.125 -31.578125 C 27.125 -34.515625 26.585938 -36.675781 25.515625 -38.0625 C 24.441406 -39.457031 22.785156 -40.15625 20.546875 -40.15625 C 17.523438 -40.15625 14.757812 -39.441406 12.25 -38.015625 L 10.703125 -32.71875 L 8.171875 -32.71875 L 8.171875 -42.015625 C 13.066406 -43.078125 17.375 -43.609375 21.09375 -43.609375 Z M 27.125 -21.734375 L 21.1875 -21.546875 C 17.132812 -21.398438 14.390625 -20.613281 12.953125 -19.1875 C 11.515625 -17.769531 10.796875 -15.394531 10.796875 -12.0625 C 10.796875 -6.738281 12.957031 -4.078125 17.28125 -4.078125 C 19.34375 -4.078125 21.117188 -4.3125 22.609375 -4.78125 C 24.109375 -5.25 25.613281 -5.847656 27.125 -6.578125 Z M 27.125 -21.734375 "/></g></g></g><g fill="#c4c0bf" fill-opacity="1"><g transform="translate(333.580877, 736.517623)"><g><path d="M 32.796875 -3.171875 C 29.378906 -0.453125 25.390625 0.90625 20.828125 0.90625 C 9.179688 0.90625 3.359375 -6.367188 3.359375 -20.921875 C 3.359375 -28.390625 5.003906 -34.066406 8.296875 -37.953125 C 11.597656 -41.835938 16.457031 -43.78125 22.875 -43.78125 C 26.132812 -43.78125 29.441406 -43.429688 32.796875 -42.734375 C 32.617188 -43.734375 32.53125 -46.242188 32.53125 -50.265625 L 32.53125 -61.34375 L 25.359375 -62.4375 L 25.359375 -64.46875 L 40.0625 -64.46875 L 40.0625 -3.171875 L 45.328125 -2.046875 L 45.328125 0 L 33.34375 0 Z M 11.53125 -20.921875 C 11.53125 -15.171875 12.492188 -10.878906 14.421875 -8.046875 C 16.359375 -5.222656 19.328125 -3.8125 23.328125 -3.8125 C 26.742188 -3.8125 29.8125 -4.398438 32.53125 -5.578125 L 32.53125 -39.296875 C 29.84375 -39.804688 26.773438 -40.0625 23.328125 -40.0625 C 15.460938 -40.0625 11.53125 -33.679688 11.53125 -20.921875 Z M 11.53125 -20.921875 "/></g></g></g><g fill="#c4c0bf" fill-opacity="1"><g transform="translate(380.035975, 736.517623)"><g><path d="M 17.203125 -56.578125 C 17.203125 -55.242188 16.71875 -54.09375 15.75 -53.125 C 14.78125 -52.15625 13.613281 -51.671875 12.25 -51.671875 C 10.914062 -51.671875 9.765625 -52.15625 8.796875 -53.125 C 7.828125 -54.09375 7.34375 -55.242188 7.34375 -56.578125 C 7.34375 -57.941406 7.828125 -59.109375 8.796875 -60.078125 C 9.765625 -61.046875 10.914062 -61.53125 12.25 -61.53125 C 13.613281 -61.53125 14.78125 -61.046875 15.75 -60.078125 C 16.71875 -59.109375 17.203125 -57.941406 17.203125 -56.578125 Z M 16.75 -3.171875 L 24.046875 -2.046875 L 24.046875 0 L 1.953125 0 L 1.953125 -2.046875 L 9.203125 -3.171875 L 9.203125 -39.46875 L 3.171875 -40.609375 L 3.171875 -42.65625 L 16.75 -42.65625 Z M 16.75 -3.171875 "/></g></g></g><g fill="#c4c0bf" fill-opacity="1"><g transform="translate(405.849408, 736.517623)"><g><path d="M 14.703125 -39.203125 C 17.023438 -40.535156 19.503906 -41.628906 22.140625 -42.484375 C 24.773438 -43.347656 26.96875 -43.78125 28.71875 -43.78125 C 32.40625 -43.78125 35.1875 -42.707031 37.0625 -40.5625 C 38.9375 -38.414062 39.875 -35.300781 39.875 -31.21875 L 39.875 -3.171875 L 45.046875 -2.046875 L 45.046875 0 L 26.671875 0 L 26.671875 -2.046875 L 32.34375 -3.171875 L 32.34375 -30.40625 C 32.34375 -32.914062 31.726562 -34.882812 30.5 -36.3125 C 29.28125 -37.75 27.382812 -38.46875 24.8125 -38.46875 C 22.09375 -38.46875 18.753906 -38.03125 14.796875 -37.15625 L 14.796875 -3.171875 L 20.546875 -2.046875 L 20.546875 0 L 2.125 0 L 2.125 -2.046875 L 7.265625 -3.171875 L 7.265625 -39.46875 L 2.125 -40.609375 L 2.125 -42.65625 L 14.296875 -42.65625 Z M 14.703125 -39.203125 "/></g></g></g><g fill="#c4c0bf" fill-opacity="1"><g transform="translate(452.304507, 736.517623)"><g><path d="M 39.46875 -29.171875 C 39.46875 -24.273438 38 -20.570312 35.0625 -18.0625 C 32.132812 -15.550781 27.914062 -14.296875 22.40625 -14.296875 C 19.925781 -14.296875 17.628906 -14.519531 15.515625 -14.96875 L 12.65625 -9.03125 C 12.75 -8.507812 13.335938 -8.019531 14.421875 -7.5625 C 15.515625 -7.113281 16.878906 -6.890625 18.515625 -6.890625 L 31.125 -6.890625 C 35.71875 -6.890625 39.125 -5.890625 41.34375 -3.890625 C 43.570312 -1.898438 44.6875 0.847656 44.6875 4.359375 C 44.6875 7.535156 43.800781 10.300781 42.03125 12.65625 C 40.269531 15.019531 37.675781 16.84375 34.25 18.125 C 30.832031 19.40625 26.691406 20.046875 21.828125 20.046875 C 16.015625 20.046875 11.585938 19.15625 8.546875 17.375 C 5.515625 15.59375 4 13.050781 4 9.75 C 4 8.144531 4.539062 6.5625 5.625 5 C 6.71875 3.445312 8.710938 1.628906 11.609375 -0.453125 C 9.890625 -1.023438 8.4375 -2.003906 7.25 -3.390625 C 6.070312 -4.785156 5.484375 -6.285156 5.484375 -7.890625 L 12.65625 -15.96875 C 7.875 -18.207031 5.484375 -22.609375 5.484375 -29.171875 C 5.484375 -33.828125 6.957031 -37.425781 9.90625 -39.96875 C 12.863281 -42.507812 17.15625 -43.78125 22.78125 -43.78125 C 23.894531 -43.78125 25.328125 -43.664062 27.078125 -43.4375 C 28.835938 -43.21875 30.1875 -42.957031 31.125 -42.65625 L 41.15625 -47.6875 L 42.734375 -45.734375 L 36.4375 -39.203125 C 38.457031 -36.929688 39.46875 -33.585938 39.46875 -29.171875 Z M 37.609375 5.765625 C 37.609375 4.035156 37.078125 2.6875 36.015625 1.71875 C 34.960938 0.75 33.363281 0.265625 31.21875 0.265625 L 14.703125 0.265625 C 13.429688 1.359375 12.394531 2.742188 11.59375 4.421875 C 10.789062 6.097656 10.390625 7.664062 10.390625 9.125 C 10.390625 11.71875 11.328125 13.582031 13.203125 14.71875 C 15.078125 15.851562 17.953125 16.421875 21.828125 16.421875 C 26.878906 16.421875 30.769531 15.484375 33.5 13.609375 C 36.238281 11.734375 37.609375 9.117188 37.609375 5.765625 Z M 22.5 -17.734375 C 25.800781 -17.734375 28.140625 -18.675781 29.515625 -20.5625 C 30.890625 -22.457031 31.578125 -25.328125 31.578125 -29.171875 C 31.578125 -33.191406 30.863281 -36.054688 29.4375 -37.765625 C 28.019531 -39.472656 25.738281 -40.328125 22.59375 -40.328125 C 19.414062 -40.328125 17.085938 -39.460938 15.609375 -37.734375 C 14.128906 -36.015625 13.390625 -33.160156 13.390625 -29.171875 C 13.390625 -25.179688 14.113281 -22.273438 15.5625 -20.453125 C 17.007812 -18.640625 19.320312 -17.734375 22.5 -17.734375 Z M 22.5 -17.734375 "/></g></g></g><g fill="#c4c0bf" fill-opacity="1"><g transform="translate(498.759605, 736.517623)"><g><path d="M 17.109375 -4.171875 C 17.109375 -2.691406 16.582031 -1.40625 15.53125 -0.3125 C 14.488281 0.769531 13.179688 1.3125 11.609375 1.3125 C 10.035156 1.3125 8.726562 0.769531 7.6875 -0.3125 C 6.644531 -1.40625 6.125 -2.691406 6.125 -4.171875 C 6.125 -5.710938 6.648438 -7.015625 7.703125 -8.078125 C 8.765625 -9.140625 10.066406 -9.671875 11.609375 -9.671875 C 13.148438 -9.671875 14.453125 -9.140625 15.515625 -8.078125 C 16.578125 -7.015625 17.109375 -5.710938 17.109375 -4.171875 Z M 17.109375 -4.171875 "/></g></g></g><g fill="#c4c0bf" fill-opacity="1"><g transform="translate(521.987154, 736.517623)"><g><path d="M 17.109375 -4.171875 C 17.109375 -2.691406 16.582031 -1.40625 15.53125 -0.3125 C 14.488281 0.769531 13.179688 1.3125 11.609375 1.3125 C 10.035156 1.3125 8.726562 0.769531 7.6875 -0.3125 C 6.644531 -1.40625 6.125 -2.691406 6.125 -4.171875 C 6.125 -5.710938 6.648438 -7.015625 7.703125 -8.078125 C 8.765625 -9.140625 10.066406 -9.671875 11.609375 -9.671875 C 13.148438 -9.671875 14.453125 -9.140625 15.515625 -8.078125 C 16.578125 -7.015625 17.109375 -5.710938 17.109375 -4.171875 Z M 17.109375 -4.171875 "/></g></g></g><g fill="#c4c0bf" fill-opacity="1"><g transform="translate(545.214703, 736.517623)"><g><path d="M 17.109375 -4.171875 C 17.109375 -2.691406 16.582031 -1.40625 15.53125 -0.3125 C 14.488281 0.769531 13.179688 1.3125 11.609375 1.3125 C 10.035156 1.3125 8.726562 0.769531 7.6875 -0.3125 C 6.644531 -1.40625 6.125 -2.691406 6.125 -4.171875 C 6.125 -5.710938 6.648438 -7.015625 7.703125 -8.078125 C 8.765625 -9.140625 10.066406 -9.671875 11.609375 -9.671875 C 13.148438 -9.671875 14.453125 -9.140625 15.515625 -8.078125 C 16.578125 -7.015625 17.109375 -5.710938 17.109375 -4.171875 Z M 17.109375 -4.171875 "/></g></g></g></svg>