<svg xmlns="http://www.w3.org/2000/svg" xmlns:xlink="http://www.w3.org/1999/xlink" width="1080" zoomAndPan="magnify" viewBox="0 0 810 809.999993" height="1080" preserveAspectRatio="xMidYMid meet" version="1.0"><defs><g/><clipPath id="2e3639b390"><path d="M 191 219 L 536 219 L 536 351 L 191 351 Z M 191 219 " clip-rule="nonzero"/></clipPath><clipPath id="7a775e77d0"><path d="M 285.527344 427.871094 L 191.148438 269.339844 L 453.433594 113.1875 L 547.816406 271.722656 Z M 285.527344 427.871094 " clip-rule="nonzero"/></clipPath><clipPath id="4c1b2f441a"><path d="M 259.046875 443.636719 L 141.644531 246.4375 L 430.355469 74.558594 L 547.757812 271.757812 Z M 259.046875 443.636719 " clip-rule="nonzero"/></clipPath><clipPath id="7d06e79c0e"><path d="M 530 167 L 599 167 L 599 239 L 530 239 Z M 530 167 " clip-rule="nonzero"/></clipPath><clipPath id="bc10e14059"><path d="M 537.113281 157.535156 L 605.65625 176.992188 L 587.019531 242.648438 L 518.476562 223.191406 Z M 537.113281 157.535156 " clip-rule="nonzero"/></clipPath><clipPath id="d1ce0bff9c"><path d="M 537.113281 157.535156 L 605.65625 176.992188 L 587.019531 242.648438 L 518.476562 223.191406 Z M 537.113281 157.535156 " clip-rule="nonzero"/></clipPath></defs><g fill="#06af96" fill-opacity="1"><g transform="translate(109.647373, 505.190397)"><g><path d="M 38.375 -83.046875 C 38.375 -77.804688 40.414062 -73.5625 44.5 -70.3125 C 48.59375 -67.0625 54.835938 -63.441406 63.234375 -59.453125 C 70.148438 -56.097656 75.492188 -53.210938 79.265625 -50.796875 C 83.046875 -48.390625 86.347656 -45.191406 89.171875 -41.203125 C 92.003906 -37.222656 93.421875 -32.503906 93.421875 -27.046875 C 93.421875 -18.035156 89.175781 -10.800781 80.6875 -5.34375 C 72.195312 0.101562 60.820312 2.828125 46.5625 2.828125 C 35.863281 2.828125 27.050781 0.890625 20.125 -2.984375 C 13.207031 -6.867188 9.75 -11.957031 9.75 -18.25 C 9.75 -22.4375 11.320312 -25.945312 14.46875 -28.78125 C 17.613281 -31.613281 21.492188 -33.03125 26.109375 -33.03125 C 29.671875 -33.03125 33.238281 -32.296875 36.8125 -30.828125 C 33.238281 -28.097656 31.453125 -23.691406 31.453125 -17.609375 C 31.453125 -13.421875 32.921875 -10.171875 35.859375 -7.859375 C 38.796875 -5.554688 42.363281 -4.40625 46.5625 -4.40625 C 51.382812 -4.40625 55.523438 -5.660156 58.984375 -8.171875 C 62.441406 -10.691406 64.171875 -14.257812 64.171875 -18.875 C 64.171875 -23.28125 62.441406 -26.789062 58.984375 -29.40625 C 55.523438 -32.03125 50.125 -35.125 42.78125 -38.6875 C 36.070312 -41.832031 30.671875 -44.71875 26.578125 -47.34375 C 22.492188 -49.96875 18.984375 -53.476562 16.046875 -57.875 C 13.109375 -62.28125 11.640625 -67.628906 11.640625 -73.921875 C 11.640625 -83.359375 15.625 -90.800781 23.59375 -96.25 C 31.5625 -101.707031 41.628906 -104.4375 53.796875 -104.4375 C 64.492188 -104.4375 73.25 -102.441406 80.0625 -98.453125 C 86.875 -94.472656 90.28125 -89.335938 90.28125 -83.046875 C 90.28125 -78.222656 88.8125 -74.65625 85.875 -72.34375 C 82.9375 -70.039062 79.164062 -68.890625 74.5625 -68.890625 C 70.15625 -68.890625 66.273438 -69.832031 62.921875 -71.71875 C 66.691406 -75.289062 68.578125 -79.800781 68.578125 -85.25 C 68.578125 -88.8125 67.210938 -91.691406 64.484375 -93.890625 C 61.765625 -96.097656 58.203125 -97.203125 53.796875 -97.203125 C 48.972656 -97.203125 45.195312 -95.835938 42.46875 -93.109375 C 39.738281 -90.390625 38.375 -87.035156 38.375 -83.046875 Z M 38.375 -83.046875 "/></g></g></g><g fill="#06af96" fill-opacity="1"><g transform="translate(212.499878, 505.190397)"><g><path d="M 42.15625 2.828125 C 33.550781 2.828125 27.363281 0.890625 23.59375 -2.984375 C 19.820312 -6.867188 17.9375 -13.210938 17.9375 -22.015625 L 17.9375 -88.71875 L 2.203125 -88.71875 C 2.203125 -92.28125 2.410156 -94.582031 2.828125 -95.625 C 3.242188 -96.675781 4.503906 -97.515625 6.609375 -98.140625 C 13.523438 -100.035156 18.972656 -102.972656 22.953125 -106.953125 C 26.941406 -110.941406 30.195312 -116.710938 32.71875 -124.265625 C 33.34375 -126.566406 34.390625 -127.976562 35.859375 -128.5 C 37.328125 -129.03125 40.894531 -129.296875 46.5625 -129.296875 L 46.5625 -100.984375 L 72.359375 -100.984375 C 72.359375 -98.253906 71.9375 -95.785156 71.09375 -93.578125 C 70.257812 -91.378906 69.109375 -89.757812 67.640625 -88.71875 L 46.5625 -88.71875 L 46.5625 -17.9375 C 46.5625 -11.644531 49.179688 -8.5 54.421875 -8.5 C 56.722656 -8.5 59.289062 -9.226562 62.125 -10.6875 C 64.957031 -12.15625 67.53125 -14.148438 69.84375 -16.671875 L 72.359375 -13.53125 C 63.335938 -2.625 53.269531 2.828125 42.15625 2.828125 Z M 42.15625 2.828125 "/></g></g></g><g fill="#06af96" fill-opacity="1"><g transform="translate(287.044375, 505.190397)"><g><path d="M 67.3125 -7.546875 C 73.394531 -7.546875 78.742188 -8.644531 83.359375 -10.84375 C 87.972656 -13.050781 92.484375 -16.773438 96.890625 -22.015625 L 100.671875 -19.1875 C 95.835938 -12.269531 89.695312 -6.867188 82.25 -2.984375 C 74.8125 0.890625 66.6875 2.828125 57.875 2.828125 C 48.226562 2.828125 39.578125 0.519531 31.921875 -4.09375 C 24.273438 -8.707031 18.25 -15.050781 13.84375 -23.125 C 9.4375 -31.195312 7.234375 -40.367188 7.234375 -50.640625 C 7.234375 -67.003906 12.210938 -80.0625 22.171875 -89.8125 C 32.140625 -99.5625 45.40625 -104.4375 61.96875 -104.4375 C 73.71875 -104.4375 83.3125 -101.65625 90.75 -96.09375 C 98.195312 -90.539062 101.921875 -83.363281 101.921875 -74.5625 C 101.921875 -64.488281 97.671875 -56.460938 89.171875 -50.484375 C 80.679688 -44.515625 69.097656 -41.53125 54.421875 -41.53125 C 48.546875 -41.53125 43.195312 -41.945312 38.375 -42.78125 C 39.425781 -31.875 42.570312 -23.273438 47.8125 -16.984375 C 53.0625 -10.691406 59.5625 -7.546875 67.3125 -7.546875 Z M 58.515625 -96.890625 C 52.015625 -96.890625 46.925781 -92.957031 43.25 -85.09375 C 39.582031 -77.226562 37.75 -66.269531 37.75 -52.21875 L 37.75 -47.1875 C 40.050781 -47.1875 42.882812 -47.394531 46.25 -47.8125 C 55.050781 -48.863281 61.8125 -51.75 66.53125 -56.46875 C 71.25 -61.1875 73.609375 -67.425781 73.609375 -75.1875 C 73.609375 -81.476562 72.191406 -86.664062 69.359375 -90.75 C 66.535156 -94.84375 62.921875 -96.890625 58.515625 -96.890625 Z M 58.515625 -96.890625 "/></g></g></g><g fill="#06af96" fill-opacity="1"><g transform="translate(395.558504, 505.190397)"><g><path d="M 82.421875 -104.4375 C 93.117188 -104.4375 101.769531 -99.769531 108.375 -90.4375 C 114.976562 -81.101562 118.28125 -68.890625 118.28125 -53.796875 C 118.28125 -43.097656 116.335938 -33.5 112.453125 -25 C 108.578125 -16.507812 103.125 -9.90625 96.09375 -5.1875 C 89.070312 -0.46875 81.160156 1.890625 72.359375 1.890625 C 67.316406 1.890625 62.539062 1.101562 58.03125 -0.46875 C 53.53125 -2.039062 49.707031 -4.296875 46.5625 -7.234375 L 46.5625 28.625 C 46.5625 33.65625 47.238281 37.0625 48.59375 38.84375 C 49.957031 40.632812 53.160156 42.050781 58.203125 43.09375 L 62.28125 44.046875 L 60.40625 49.390625 L 11.640625 49.390625 L 9.125 46.25 L 11.640625 43.09375 C 14.160156 39.738281 15.890625 36.117188 16.828125 32.234375 C 17.773438 28.359375 18.25 23.171875 18.25 16.671875 L 18.25 -82.109375 C 18.25 -85.878906 16.882812 -87.765625 14.15625 -87.765625 L 4.40625 -87.765625 L 3.453125 -91.234375 C 7.441406 -94.796875 12.632812 -97.726562 19.03125 -100.03125 C 25.425781 -102.34375 31.664062 -103.5 37.75 -103.5 C 40.476562 -103.5 42.628906 -102.867188 44.203125 -101.609375 C 45.773438 -100.347656 46.5625 -98.671875 46.5625 -96.578125 L 46.5625 -82.734375 C 51.800781 -90.285156 57.300781 -95.789062 63.0625 -99.25 C 68.832031 -102.707031 75.285156 -104.4375 82.421875 -104.4375 Z M 60.40625 -7.234375 C 69 -7.234375 75.550781 -10.898438 80.0625 -18.234375 C 84.570312 -25.578125 86.828125 -36.378906 86.828125 -50.640625 C 86.828125 -63.015625 85.144531 -72.503906 81.78125 -79.109375 C 78.425781 -85.722656 73.601562 -89.03125 67.3125 -89.03125 C 58.925781 -89.03125 52.007812 -83.472656 46.5625 -72.359375 L 46.5625 -11.328125 C 50.539062 -8.597656 55.15625 -7.234375 60.40625 -7.234375 Z M 60.40625 -7.234375 "/></g></g></g><g fill="#06af96" fill-opacity="1"><g transform="translate(521.057472, 505.190397)"><g><path d="M 44.671875 -17.9375 C 44.671875 -11.644531 46.660156 -8.5 50.640625 -8.5 C 54.628906 -8.5 58.507812 -10.070312 62.28125 -13.21875 L 64.796875 -10.0625 C 57.460938 -1.46875 48.34375 2.828125 37.4375 2.828125 C 30.09375 2.828125 24.742188 1.097656 21.390625 -2.359375 C 18.035156 -5.816406 16.359375 -11.320312 16.359375 -18.875 L 16.359375 -134.328125 C 16.359375 -137.265625 14.992188 -138.734375 12.265625 -138.734375 L 2.203125 -138.734375 L 1.265625 -141.875 C 5.242188 -145.644531 10.429688 -148.628906 16.828125 -150.828125 C 23.222656 -153.035156 29.566406 -154.140625 35.859375 -154.140625 C 38.585938 -154.140625 40.738281 -153.5625 42.3125 -152.40625 C 43.882812 -151.257812 44.671875 -149.632812 44.671875 -147.53125 Z M 44.671875 -17.9375 "/></g></g></g><g fill="#06af96" fill-opacity="1"><g transform="translate(585.536868, 505.190397)"><g><path d="M 43.40625 -69.515625 C 39.007812 -67.003906 33.769531 -65.75 27.6875 -65.75 C 23.28125 -65.75 19.816406 -67.054688 17.296875 -69.671875 C 14.785156 -72.296875 13.53125 -76.019531 13.53125 -80.84375 C 13.53125 -87.976562 17.039062 -93.691406 24.0625 -97.984375 C 31.09375 -102.285156 40.269531 -104.4375 51.59375 -104.4375 C 65.007812 -104.4375 75.546875 -101.5 83.203125 -95.625 C 90.859375 -89.757812 94.6875 -81.789062 94.6875 -71.71875 L 94.6875 -17.296875 C 94.6875 -11.429688 96.785156 -8.5 100.984375 -8.5 C 104.960938 -8.5 108.84375 -10.070312 112.625 -13.21875 L 115.140625 -10.0625 C 107.378906 -1.46875 98.148438 2.828125 87.453125 2.828125 C 81.160156 2.828125 76.390625 1.253906 73.140625 -1.890625 C 69.890625 -5.035156 67.953125 -9.960938 67.328125 -16.671875 L 66.0625 -16.671875 C 62.707031 -10.585938 58.25 -5.816406 52.6875 -2.359375 C 47.132812 1.097656 40.789062 2.828125 33.65625 2.828125 C 25.6875 2.828125 19.289062 0.363281 14.46875 -4.5625 C 9.644531 -9.488281 7.234375 -15.9375 7.234375 -23.90625 C 7.234375 -32.925781 11.53125 -40.054688 20.125 -45.296875 C 28.726562 -50.535156 40.367188 -53.15625 55.046875 -53.15625 C 57.773438 -53.15625 61.65625 -52.945312 66.6875 -52.53125 L 66.6875 -68.265625 C 66.6875 -78.535156 65.425781 -85.925781 62.90625 -90.4375 C 60.394531 -94.945312 56.3125 -97.203125 50.65625 -97.203125 C 46.664062 -97.203125 43.515625 -95.941406 41.203125 -93.421875 C 38.898438 -90.910156 37.75 -87.660156 37.75 -83.671875 C 37.75 -77.378906 39.632812 -72.660156 43.40625 -69.515625 Z M 48.125 -12.890625 C 60.5 -12.890625 66.6875 -24.113281 66.6875 -46.5625 C 56.207031 -46.5625 48.34375 -44.828125 43.09375 -41.359375 C 37.851562 -37.898438 35.234375 -33.023438 35.234375 -26.734375 C 35.234375 -22.546875 36.382812 -19.191406 38.6875 -16.671875 C 41 -14.148438 44.144531 -12.890625 48.125 -12.890625 Z M 48.125 -12.890625 "/></g></g></g><g clip-path="url(#2e3639b390)"><g clip-path="url(#7a775e77d0)"><g clip-path="url(#4c1b2f441a)"><path fill="#06af96" d="M 534.726562 250.222656 C 535.363281 251.292969 535.464844 252.628906 534.878906 253.828125 C 532.277344 259.167969 529.261719 264.40625 525.90625 269.398438 C 524.746094 271.136719 522.378906 271.597656 520.640625 270.4375 C 518.902344 269.277344 518.441406 266.90625 519.597656 265.167969 C 522.765625 260.441406 525.609375 255.503906 528.0625 250.5 C 528.980469 248.605469 531.265625 247.84375 533.101562 248.746094 C 533.855469 249.097656 534.378906 249.632812 534.726562 250.222656 Z M 515.367188 279.164062 C 516.179688 280.527344 516.0625 282.34375 514.929688 283.617188 C 510.992188 288.054688 506.695312 292.3125 502.199219 296.234375 C 500.632812 297.617188 498.238281 297.445312 496.851562 295.875 C 495.503906 294.28125 495.636719 291.90625 497.207031 290.523438 C 501.464844 286.792969 505.511719 282.785156 509.234375 278.574219 C 510.597656 277.015625 513.007812 276.875 514.570312 278.242188 C 514.9375 278.523438 515.171875 278.832031 515.367188 279.164062 Z M 489.125 302.070312 C 490.15625 303.804688 489.652344 306.050781 487.964844 307.152344 C 485.96875 308.492188 483.929688 309.753906 481.867188 310.980469 C 478.777344 312.824219 475.621094 314.554688 472.449219 316.089844 C 470.558594 317.019531 468.332031 316.296875 467.382812 314.367188 C 466.457031 312.472656 467.210938 310.226562 469.105469 309.300781 C 472.105469 307.8125 475.117188 306.171875 478.023438 304.441406 C 479.976562 303.277344 481.902344 302.082031 483.789062 300.808594 C 485.527344 299.625 487.867188 300.125 489.054688 301.867188 C 489.039062 301.925781 489.082031 301.996094 489.125 302.070312 Z M 457.910156 317.460938 C 458.042969 317.683594 458.136719 317.925781 458.253906 318.207031 C 458.9375 320.191406 457.867188 322.328125 455.878906 323.011719 C 450.578125 324.820312 445.152344 326.257812 439.71875 327.34375 L 438.503906 327.566406 C 436.4375 327.949219 434.457031 326.632812 434.074219 324.566406 C 433.691406 322.5 435.027344 320.558594 437.070312 320.136719 L 438.226562 319.898438 C 443.335938 318.855469 448.460938 317.5 453.449219 315.828125 C 455.132812 315.222656 457.011719 315.953125 457.910156 317.460938 Z M 391.378906 251.34375 C 392.433594 253.109375 393.285156 254.796875 394.082031 256.46875 C 394.972656 258.382812 394.097656 260.601562 392.1875 261.488281 C 390.273438 262.378906 387.996094 261.488281 387.164062 259.589844 C 384.941406 254.675781 381.84375 250.230469 378.074219 246.242188 C 376.617188 244.714844 376.6875 242.324219 378.234375 240.90625 C 379.761719 239.449219 382.148438 239.523438 383.570312 241.070312 C 386.632812 244.289062 389.230469 247.730469 391.378906 251.34375 Z M 397.992188 273 C 398.300781 273.515625 398.519531 274.136719 398.507812 274.789062 C 398.6875 279.023438 398.277344 283.109375 397.28125 287.046875 C 396.746094 289.160156 396.042969 291.328125 395.199219 293.425781 C 394.421875 295.386719 392.21875 296.296875 390.261719 295.515625 C 388.300781 294.738281 387.390625 292.535156 388.167969 290.574219 C 388.898438 288.792969 389.476562 287 389.9375 285.179688 C 390.757812 281.949219 391.082031 278.5625 390.925781 275.113281 C 390.828125 273.023438 392.464844 271.253906 394.550781 271.15625 C 396.042969 271.066406 397.3125 271.859375 397.992188 273 Z M 370.535156 230.820312 C 371.238281 231.996094 371.292969 233.511719 370.519531 234.722656 C 369.4375 236.511719 367.078125 237.070312 365.328125 235.964844 C 364.160156 235.265625 363.015625 234.597656 361.835938 233.953125 C 358.09375 231.941406 354.25 230.335938 350.378906 229.199219 C 348.375 228.59375 347.207031 226.546875 347.785156 224.503906 C 348.386719 222.5 350.433594 221.332031 352.472656 221.914062 C 356.871094 223.1875 361.230469 224.984375 365.433594 227.269531 C 366.753906 227.980469 368.039062 228.714844 369.304688 229.503906 C 369.8125 229.851562 370.230469 230.304688 370.535156 230.820312 Z M 423.695312 323.960938 C 424.003906 324.476562 424.199219 325.058594 424.226562 325.691406 C 424.324219 327.777344 422.746094 329.566406 420.65625 329.660156 C 414.707031 329.960938 408.664062 329.863281 402.714844 329.414062 C 400.628906 329.261719 399.09375 327.429688 399.246094 325.34375 C 399.398438 323.257812 401.226562 321.722656 403.3125 321.875 C 408.953125 322.308594 414.648438 322.410156 420.253906 322.117188 C 421.710938 322.050781 422.992188 322.78125 423.695312 323.960938 Z M 337.390625 221.863281 C 337.652344 222.304688 337.828125 222.851562 337.90625 223.402344 C 338.097656 225.480469 336.601562 227.320312 334.542969 227.550781 C 330.882812 227.933594 327.476562 228.910156 324.386719 230.5 C 323.703125 230.859375 323.019531 231.21875 322.390625 231.589844 C 321.621094 232.050781 320.90625 232.523438 320.214844 233.035156 C 318.496094 234.257812 316.160156 233.851562 314.941406 232.132812 C 313.71875 230.417969 314.121094 228.082031 315.835938 226.859375 C 316.714844 226.238281 317.613281 225.652344 318.570312 225.082031 C 319.34375 224.625 320.136719 224.199219 320.96875 223.753906 C 324.875 221.777344 329.164062 220.523438 333.792969 220.011719 C 335.265625 219.882812 336.644531 220.609375 337.390625 221.863281 Z M 386 304.9375 C 386.789062 306.265625 386.726562 308 385.648438 309.289062 C 383.390625 312.03125 380.863281 314.734375 378.019531 317.324219 C 380.824219 318.097656 383.644531 318.816406 386.492188 319.414062 C 388.542969 319.839844 389.84375 321.859375 389.417969 323.910156 C 388.992188 325.960938 386.976562 327.261719 384.925781 326.832031 C 379.949219 325.753906 375.007812 324.40625 370.199219 322.777344 C 369.390625 322.761719 368.585938 322.492188 367.933594 321.980469 C 367.816406 321.953125 367.734375 321.902344 367.636719 321.90625 C 365.664062 321.1875 364.640625 319.050781 365.359375 317.078125 C 365.996094 315.300781 367.84375 314.300781 369.636719 314.628906 C 373.527344 311.367188 376.925781 307.945312 379.835938 304.464844 C 381.179688 302.871094 383.523438 302.621094 385.15625 303.941406 C 385.488281 304.246094 385.78125 304.570312 386 304.9375 Z M 356.167969 309.425781 C 356.828125 310.53125 356.890625 311.890625 356.269531 313.109375 C 355.328125 314.964844 353.019531 315.691406 351.140625 314.714844 C 345.789062 311.914062 340.617188 308.757812 335.808594 305.28125 C 334.121094 304.042969 333.714844 301.6875 334.957031 300 C 336.195312 298.316406 338.546875 297.914062 340.234375 299.152344 C 344.757812 302.398438 349.589844 305.410156 354.625 308 C 355.304688 308.394531 355.839844 308.875 356.167969 309.425781 Z M 311.0625 241.777344 C 311.585938 242.664062 311.746094 243.765625 311.417969 244.808594 C 310.0625 249.308594 309.980469 254.445312 311.261719 260.121094 C 311.71875 262.144531 310.449219 264.195312 308.425781 264.652344 C 306.40625 265.105469 304.351562 263.835938 303.894531 261.8125 C 302.320312 254.816406 302.421875 248.367188 304.167969 242.589844 C 304.765625 240.585938 306.894531 239.46875 308.898438 240.070312 C 309.882812 240.382812 310.601562 241.003906 311.0625 241.777344 Z M 359.035156 326.878906 C 359.035156 326.878906 359.054688 326.917969 359.054688 326.917969 C 360.09375 328.746094 359.476562 331.058594 357.652344 332.09375 C 352.601562 335 347.171875 337.683594 341.582031 340.015625 C 339.660156 340.808594 337.445312 339.933594 336.625 337.976562 C 335.832031 336.054688 336.707031 333.835938 338.664062 333.019531 C 343.972656 330.808594 349.089844 328.261719 353.878906 325.507812 C 355.707031 324.472656 357.980469 325.113281 359.035156 326.878906 Z M 327.941406 289.058594 C 328.820312 290.53125 328.617188 292.449219 327.363281 293.695312 C 325.894531 295.167969 323.492188 295.148438 322.019531 293.679688 C 318.035156 289.667969 314.339844 284.882812 311.3125 279.796875 C 311.3125 279.796875 311.292969 279.761719 311.292969 279.761719 L 310.851562 279.023438 C 309.777344 277.21875 310.394531 274.90625 312.21875 273.871094 C 313.988281 272.816406 316.300781 273.4375 317.351562 275.207031 C 317.351562 275.207031 317.375 275.242188 317.375 275.242188 L 317.769531 275.90625 C 317.769531 275.90625 317.789062 275.941406 317.789062 275.941406 C 320.488281 280.472656 323.804688 284.785156 327.371094 288.351562 C 327.597656 288.5625 327.789062 288.800781 327.941406 289.058594 Z M 326.929688 340.355469 C 327.082031 340.613281 327.21875 340.929688 327.320312 341.269531 C 327.910156 343.265625 326.722656 345.367188 324.730469 345.957031 C 318.726562 347.683594 312.785156 348.925781 307.121094 349.703125 C 305.046875 349.992188 303.132812 348.535156 302.847656 346.460938 C 302.558594 344.386719 304.011719 342.472656 306.085938 342.1875 C 311.390625 341.472656 316.949219 340.257812 322.632812 338.671875 C 324.3125 338.222656 326.074219 338.917969 326.929688 340.355469 Z M 292.410156 344.839844 C 292.761719 345.429688 292.984375 346.144531 292.925781 346.878906 C 292.867188 348.957031 291.105469 350.605469 289.027344 350.546875 C 283.324219 350.347656 277.332031 349.824219 271.199219 348.984375 C 269.121094 348.675781 267.695312 346.78125 267.964844 344.722656 C 268.273438 342.644531 270.164062 341.21875 272.222656 341.492188 C 278.046875 342.316406 283.765625 342.800781 289.21875 342.996094 C 290.621094 343.011719 291.773438 343.773438 292.410156 344.839844 Z M 257.859375 340.0625 C 258.34375 340.871094 258.53125 341.859375 258.277344 342.855469 C 257.792969 344.890625 255.753906 346.15625 253.722656 345.667969 C 247.9375 344.324219 242.164062 342.667969 236.570312 340.808594 C 234.582031 340.148438 233.5 337.996094 234.160156 336.007812 C 234.820312 334.019531 236.96875 332.9375 238.960938 333.601562 C 244.355469 335.378906 249.890625 336.972656 255.441406 338.257812 C 256.519531 338.5625 257.355469 339.214844 257.859375 340.0625 Z M 224.75 328.988281 C 225.363281 330.019531 225.476562 331.300781 224.964844 332.453125 C 224.109375 334.359375 221.886719 335.234375 219.976562 334.375 C 214.359375 331.882812 208.964844 329.105469 204.042969 326.195312 C 202.253906 325.117188 201.679688 322.8125 202.699219 321.007812 C 203.777344 319.21875 206.058594 318.609375 207.882812 319.667969 C 212.585938 322.457031 217.675781 325.066406 223.042969 327.460938 C 223.796875 327.808594 224.355469 328.324219 224.75 328.988281 Z M 167.945312 235.671875 C 168.472656 236.554688 168.652344 237.695312 168.289062 238.757812 C 166.902344 243.128906 166.125 247.683594 165.933594 252.386719 C 165.839844 254.488281 164.09375 256.078125 162.015625 256.019531 C 159.914062 255.921875 158.324219 254.171875 158.382812 252.09375 C 158.582031 246.734375 159.5 241.496094 161.089844 236.460938 C 161.710938 234.492188 163.839844 233.375 165.84375 233.980469 C 166.730469 234.300781 167.484375 234.898438 167.945312 235.671875 Z M 194.914062 311.027344 C 195.703125 312.351562 195.636719 314.085938 194.597656 315.355469 C 193.277344 316.988281 190.910156 317.199219 189.277344 315.878906 C 187.210938 314.164062 185.238281 312.445312 183.390625 310.597656 C 180.929688 308.222656 178.585938 305.625 176.429688 302.921875 C 175.117188 301.304688 175.382812 298.902344 176.996094 297.59375 C 178.609375 296.285156 181.011719 296.550781 182.320312 298.164062 C 184.289062 300.636719 186.421875 302.957031 188.65625 305.121094 C 190.355469 306.804688 192.164062 308.421875 194.085938 309.972656 C 194.398438 310.332031 194.691406 310.65625 194.914062 311.027344 Z M 167.136719 267.636719 C 167.335938 267.96875 167.496094 268.320312 167.558594 268.683594 C 168.792969 273.9375 170.71875 279.175781 173.28125 284.238281 C 174.207031 286.128906 173.453125 288.375 171.621094 289.316406 C 169.730469 290.242188 167.503906 289.523438 166.539062 287.652344 C 163.726562 282.089844 161.609375 276.269531 160.238281 270.449219 C 159.757812 268.386719 161.011719 266.394531 163.050781 265.878906 C 164.652344 265.472656 166.304688 266.238281 167.136719 267.636719 Z M 167.136719 267.636719 " fill-opacity="1" fill-rule="nonzero"/></g></g></g><g clip-path="url(#7d06e79c0e)"><g clip-path="url(#bc10e14059)"><g clip-path="url(#d1ce0bff9c)"><path fill="#06af96" d="M 571.40625 167.515625 L 575.855469 192.042969 L 598.5 202.199219 L 576.644531 214.113281 L 573.976562 238.921875 L 556.011719 221.753906 L 531.695312 226.921875 L 542.445312 204.410156 L 530.121094 182.789062 L 554.722656 186.042969 Z M 571.40625 167.515625 " fill-opacity="1" fill-rule="nonzero"/><path fill="#06af96" d="M 571.300781 167.261719 L 575.765625 191.792969 L 598.40625 201.949219 L 576.550781 213.867188 L 573.871094 238.671875 L 555.90625 221.503906 L 531.605469 226.675781 L 542.355469 204.160156 L 530.015625 182.539062 L 554.617188 185.789062 Z M 571.300781 167.261719 " fill-opacity="1" fill-rule="nonzero"/><path fill="#06af96" d="M 571.300781 167.261719 L 575.765625 191.792969 L 598.40625 201.949219 L 576.550781 213.867188 L 573.871094 238.671875 L 555.90625 221.503906 L 531.605469 226.675781 L 542.355469 204.160156 L 530.015625 182.539062 L 554.617188 185.789062 Z M 571.300781 167.261719 " fill-opacity="1" fill-rule="nonzero"/><path fill="#06af96" d="M 571.300781 167.261719 L 575.765625 191.792969 L 598.40625 201.949219 L 576.550781 213.867188 L 573.871094 238.671875 L 555.90625 221.503906 L 531.605469 226.675781 L 542.355469 204.160156 L 530.015625 182.539062 L 554.617188 185.789062 Z M 571.300781 167.261719 " fill-opacity="1" fill-rule="nonzero"/></g></g></g></svg>